<svg width="50" height="50" viewBox="0 0 50 50" fill="none" xmlns="http://www.w3.org/2000/svg">
<path d="M13.9582 40.2083C13.5762 39.8264 13.3853 39.3402 13.3853 38.75C13.3853 38.1597 13.5762 37.6736 13.9582 37.2916L22.9165 28.3333V14.3229L19.0103 18.2291C18.6283 18.6111 18.1505 18.8021 17.5769 18.8021C17.0033 18.8021 16.5089 18.5937 16.0936 18.1771C15.6769 17.7604 15.4686 17.2652 15.4686 16.6916C15.4686 16.118 15.6769 15.6236 16.0936 15.2083L23.5415 7.76039C23.7498 7.55205 23.9755 7.40414 24.2186 7.31664C24.4616 7.22914 24.7221 7.18608 24.9998 7.18747C25.2776 7.18747 25.538 7.23053 25.7811 7.31664C26.0241 7.40275 26.2498 7.55067 26.4582 7.76039L34.0103 15.3125C34.3922 15.6944 34.5922 16.1715 34.6103 16.7437C34.6283 17.3159 34.4283 17.8111 34.0103 18.2291C33.5936 18.6458 33.0984 18.8541 32.5248 18.8541C31.9512 18.8541 31.4568 18.6458 31.0415 18.2291L27.0832 14.3229V30L16.8228 40.2604C16.4408 40.6423 15.9721 40.8333 15.4165 40.8333C14.8609 40.8333 14.3748 40.625 13.9582 40.2083ZM33.1248 40.2604L27.9165 35.1041L30.8853 32.1354L36.0936 37.3958C36.4755 37.7777 36.6665 38.2465 36.6665 38.8021C36.6665 39.3576 36.4582 39.8437 36.0415 40.2604C35.6596 40.6423 35.1818 40.8333 34.6082 40.8333C34.0346 40.8333 33.5401 40.6423 33.1248 40.2604Z" fill="#111111"/>
</svg>
