<svg width="45" height="45" viewBox="0 0 45 45" fill="none" xmlns="http://www.w3.org/2000/svg">
<path fill-rule="evenodd" clip-rule="evenodd" d="M22.5 2.81256C21.392 2.81256 20.2948 3.0308 19.2711 3.45482C18.2474 3.87885 17.3173 4.50035 16.5338 5.28384C15.7503 6.06734 15.1288 6.99748 14.7048 8.02116C14.2807 9.04485 14.0625 10.142 14.0625 11.2501C14.0625 12.3581 14.2807 13.4553 14.7048 14.4789C15.1288 15.5026 15.7503 16.4328 16.5338 17.2163C17.3173 17.9998 18.2474 18.6213 19.2711 19.0453C20.2948 19.4693 21.392 19.6876 22.5 19.6876C24.7378 19.6876 26.8839 18.7986 28.4662 17.2163C30.0486 15.6339 30.9375 13.4878 30.9375 11.2501C30.9375 9.01229 30.0486 6.86618 28.4662 5.28384C26.8839 3.7015 24.7378 2.81256 22.5 2.81256ZM11.25 11.2501C11.2502 9.08507 11.8751 6.96612 13.0497 5.14747C14.2243 3.32882 15.8987 1.88773 17.872 0.997106C19.8454 0.106485 22.0337 -0.195828 24.1746 0.126441C26.3155 0.448709 28.3179 1.38187 29.9416 2.81395C31.5652 4.24603 32.7412 6.1162 33.3284 8.20005C33.9155 10.2839 33.8889 12.4929 33.2518 14.562C32.6146 16.6311 31.3939 18.4724 29.7362 19.865C28.0786 21.2576 26.0543 22.1422 23.9062 22.4129V37.9688C23.9062 38.3418 23.7581 38.6995 23.4944 38.9632C23.2306 39.2269 22.873 39.3751 22.5 39.3751C22.127 39.3751 21.7694 39.2269 21.5056 38.9632C21.2419 38.6995 21.0938 38.3418 21.0938 37.9688V22.4157C18.374 22.073 15.8729 20.7491 14.0603 18.6926C12.2477 16.6361 11.2484 13.9913 11.25 11.2501ZM18.2616 35.3644C18.3226 35.7321 18.2351 36.109 18.0183 36.4123C17.8016 36.7155 17.4733 36.9203 17.1056 36.9816C15.1031 37.3135 13.5056 37.8113 12.4509 38.3682C12.0635 38.5544 11.7114 38.8066 11.4103 39.1135C11.3423 39.1877 11.288 39.2734 11.25 39.3666V39.3751L11.2556 39.3976C11.2667 39.4303 11.2818 39.4614 11.3006 39.4904C11.4116 39.6531 11.5495 39.7958 11.7084 39.9122C12.1725 40.2779 12.9319 40.6716 13.995 41.0232C16.1072 41.7263 19.1138 42.1876 22.5 42.1876C25.8862 42.1876 28.8928 41.7291 31.005 41.0232C32.0681 40.6688 32.8275 40.2779 33.2916 39.9122C33.4514 39.7959 33.5903 39.6533 33.7022 39.4904C33.72 39.4613 33.7342 39.4301 33.7444 39.3976L33.75 39.3751V39.3638C33.712 39.2706 33.6577 39.1849 33.5897 39.1107C33.2884 38.8048 32.9363 38.5535 32.5491 38.3682C31.4916 37.8113 29.8969 37.3135 27.8944 36.9816C27.7078 36.9563 27.5283 36.8939 27.3663 36.7979C27.2044 36.702 27.0634 36.5745 26.9516 36.423C26.8399 36.2715 26.7596 36.0991 26.7157 35.9161C26.6718 35.7331 26.6651 35.5431 26.696 35.3574C26.7269 35.1717 26.7947 34.9941 26.8955 34.8351C26.9963 34.6761 27.128 34.539 27.2828 34.4319C27.4376 34.3247 27.6123 34.2497 27.7966 34.2114C27.9808 34.173 28.171 34.172 28.3556 34.2085C30.5212 34.5657 32.4394 35.131 33.8597 35.8791C35.1562 36.5626 36.5625 37.6876 36.5625 39.3751C36.5625 40.5732 35.8313 41.4901 35.0325 42.1229C34.2169 42.7641 33.12 43.2844 31.8938 43.6922C29.4244 44.5163 26.1028 45.0001 22.5 45.0001C18.8972 45.0001 15.5756 44.5163 13.1062 43.6922C11.88 43.2844 10.7831 42.7641 9.9675 42.1229C9.16875 41.4901 8.4375 40.5732 8.4375 39.3751C8.4375 37.6904 9.84375 36.5626 11.1403 35.8791C12.5606 35.131 14.4788 34.5657 16.6444 34.2085C17.0121 34.1475 17.389 34.235 17.6922 34.4517C17.9955 34.6685 18.2002 34.9968 18.2616 35.3644Z" fill="black"/>
</svg>
