<svg width="45" height="45" viewBox="0 0 45 45" fill="none" xmlns="http://www.w3.org/2000/svg">
<path d="M36.75 39.375L24.9375 27.5625C24 28.3125 22.9219 28.9062 21.7031 29.3437C20.4844 29.7812 19.1875 30 17.8125 30C14.4062 30 11.5238 28.8206 9.165 26.4619C6.805 24.1019 5.625 21.2188 5.625 17.8125C5.625 14.4062 6.805 11.5231 9.165 9.16313C11.5238 6.80438 14.4062 5.625 17.8125 5.625C21.2188 5.625 24.1019 6.80438 26.4619 9.16313C28.8206 11.5231 30 14.4062 30 17.8125C30 19.1875 29.7812 20.4844 29.3437 21.7031C28.9062 22.9219 28.3125 24 27.5625 24.9375L39.375 36.75L36.75 39.375ZM17.8125 26.25C20.1562 26.25 22.1487 25.43 23.79 23.79C25.43 22.1487 26.25 20.1562 26.25 17.8125C26.25 15.4688 25.43 13.4762 23.79 11.835C22.1487 10.195 20.1562 9.375 17.8125 9.375C15.4688 9.375 13.4762 10.195 11.835 11.835C10.195 13.4762 9.375 15.4688 9.375 17.8125C9.375 20.1562 10.195 22.1487 11.835 23.79C13.4762 25.43 15.4688 26.25 17.8125 26.25Z" fill="black"/>
</svg>
