<svg width="1109" height="274" viewBox="0 0 1109 274" fill="none" xmlns="http://www.w3.org/2000/svg">
<path d="M1103.19 17.8979C1103.94 19.8525 1103.33 23.4787 1097.65 29.1389C1092.25 34.53 1083.29 40.7001 1070.87 47.5035C1046.1 61.0773 1008.49 76.6841 960.733 93.3256C865.275 126.589 729.918 163.771 577.305 196.96C424.693 230.148 283.875 253.026 179.602 263.199C127.434 268.288 84.5845 270.179 54.0421 268.635C38.7338 267.86 26.7983 266.234 18.422 263.84C9.62767 261.326 6.55378 258.501 5.80759 256.547C5.0614 254.592 5.67256 250.966 11.3464 245.306C16.7505 239.914 25.7096 233.744 38.1251 226.941C62.8958 213.367 100.509 197.76 148.267 181.119C243.725 147.856 379.082 110.673 531.695 77.4847C684.307 44.296 825.125 21.4184 929.398 11.2459C981.566 6.15655 1024.42 4.26503 1054.96 5.80987C1070.27 6.58416 1082.2 8.21037 1090.58 10.6047C1099.37 13.1185 1102.45 15.9433 1103.19 17.8979Z" stroke="#7030A0" stroke-width="9"/>
</svg>
