<svg width="1728" height="471" viewBox="0 0 1728 471" fill="none" xmlns="http://www.w3.org/2000/svg">
<path d="M2003 471C2003 409.147 1973.55 347.9 1916.34 290.756C1859.12 233.612 1775.26 181.689 1669.54 137.953C1563.82 94.2163 1438.31 59.5227 1300.19 35.8527C1162.06 12.1828 1014.01 -2.70366e-06 864.5 0C714.99 2.70366e-06 566.944 12.1828 428.815 35.8527C290.686 59.5227 165.178 94.2163 59.4589 137.953C-46.2606 181.689 -130.122 233.612 -187.337 290.756C-244.552 347.9 -274 409.147 -274 471L864.5 471H2003Z" fill="url(#paint0_linear_67_604)"/>
<defs>
<linearGradient id="paint0_linear_67_604" x1="864.5" y1="0" x2="864.5" y2="942" gradientUnits="userSpaceOnUse">
<stop stop-color="#E4DEF3"/>
<stop offset="0.259597" stop-color="#974EC3"/>
</linearGradient>
</defs>
</svg>
