<svg width="213" height="778" viewBox="0 0 213 778" fill="none" xmlns="http://www.w3.org/2000/svg">
<path d="M101.5 447L101.5 80" stroke="#EEE7E7"/>
<circle cx="98" cy="759" r="19" fill="#5E8261"/>
<circle cx="14" cy="741" r="14" fill="#5E8261"/>
<circle cx="182.5" cy="743.5" r="11.5" fill="#5E8261"/>
<circle cx="204" cy="701" r="9" fill="#5E8261"/>
<circle cx="36.5" cy="683.5" r="8.5" fill="#5E8261"/>
<circle cx="131" cy="688" r="14" fill="#5E8261"/>
<line x1="13.5874" y1="740.089" x2="130.587" y2="687.089" stroke="#5E8261" stroke-width="2"/>
<line x1="203.825" y1="701.985" x2="130.825" y2="688.984" stroke="#5E8261" stroke-width="2"/>
<line x1="204.89" y1="701.455" x2="182.89" y2="744.456" stroke="#5E8261" stroke-width="2"/>
<line x1="181.261" y1="744.673" x2="130.261" y2="688.673" stroke="#5E8261" stroke-width="2"/>
<line x1="13.0671" y1="740.64" x2="35.0671" y2="683.64" stroke="#5E8261" stroke-width="2"/>
<line x1="97.7905" y1="759.978" x2="13.7905" y2="741.978" stroke="#5E8261" stroke-width="2"/>
<line x1="97.0932" y1="758.579" x2="130.093" y2="687.578" stroke="#5E8261" stroke-width="2"/>
<circle cx="102" cy="40" r="40" fill="#EEE7E7"/>
<rect x="87" y="25" width="30" height="30" fill="#C15A5A"/>
<rect x="71" y="99" width="64" height="4" rx="2" fill="#EEE7E7"/>
<rect x="61" y="105" width="84" height="4" rx="2" fill="#EEE7E7"/>
<rect x="74" y="111" width="58" height="4" rx="2" fill="#EEE7E7"/>
<rect x="51" y="117" width="104" height="4" rx="2" fill="#EEE7E7"/>
<rect x="59.5" y="123" width="87" height="4" rx="2" fill="#EEE7E7"/>
<rect x="70" y="129" width="66" height="4" rx="2" fill="#EEE7E7"/>
<rect x="79.5" y="135" width="47" height="4" rx="2" fill="#EEE7E7"/>
<rect x="83.5" y="141" width="39" height="4" rx="2" fill="#EEE7E7"/>
<rect x="79.5" y="147" width="47" height="4" rx="2" fill="#EEE7E7"/>
<rect x="71" y="153" width="64" height="4" rx="2" fill="#EEE7E7"/>
<rect x="82" y="159" width="42" height="4" rx="2" fill="#EEE7E7"/>
<rect x="78" y="165" width="50" height="4" rx="2" fill="#EEE7E7"/>
<rect x="71" y="171" width="64" height="4" rx="2" fill="#EEE7E7"/>
<rect x="78.5" y="177" width="49" height="4" rx="2" fill="#EEE7E7"/>
<rect x="61.5" y="183" width="83" height="4" rx="2" fill="#EEE7E7"/>
<rect x="67" y="189" width="72" height="4" rx="2" fill="#EEE7E7"/>
<rect x="75" y="195" width="56" height="4" rx="2" fill="#EEE7E7"/>
<rect x="79.5" y="201" width="47" height="4" rx="2" fill="#EEE7E7"/>
<rect x="71" y="207" width="64" height="4" rx="2" fill="#EEE7E7"/>
<rect x="66" y="213" width="74" height="4" rx="2" fill="#EEE7E7"/>
<rect x="71" y="219" width="64" height="4" rx="2" fill="#EEE7E7"/>
<rect x="61.5" y="225" width="83" height="4" rx="2" fill="#EEE7E7"/>
<rect x="67.5" y="231" width="71" height="4" rx="2" fill="#EEE7E7"/>
<rect x="78" y="237" width="50" height="4" rx="2" fill="#EEE7E7"/>
<rect x="92.5" y="243" width="21" height="4" rx="2" fill="#EEE7E7"/>
<rect x="91" y="249" width="24" height="4" rx="2" fill="#EEE7E7"/>
<rect x="92.5" y="255" width="21" height="4" rx="2" fill="#EEE7E7"/>
<rect x="84.5" y="261" width="37" height="4" rx="2" fill="#EEE7E7"/>
<rect x="71" y="267" width="64" height="4" rx="2" fill="#EEE7E7"/>
<rect x="61" y="273" width="84" height="4" rx="2" fill="#EEE7E7"/>
<rect x="74" y="279" width="58" height="4" rx="2" fill="#EEE7E7"/>
<rect x="51" y="285" width="104" height="4" rx="2" fill="#EEE7E7"/>
<rect x="59.5" y="291" width="87" height="4" rx="2" fill="#EEE7E7"/>
<rect x="70" y="297" width="66" height="4" rx="2" fill="#EEE7E7"/>
<rect x="79.5" y="303" width="47" height="4" rx="2" fill="#EEE7E7"/>
<rect x="83.5" y="309" width="39" height="4" rx="2" fill="#EEE7E7"/>
<rect x="79.5" y="315" width="47" height="4" rx="2" fill="#EEE7E7"/>
<rect x="71" y="321" width="64" height="4" rx="2" fill="#EEE7E7"/>
<rect x="82" y="327" width="42" height="4" rx="2" fill="#EEE7E7"/>
<rect x="78" y="333" width="50" height="4" rx="2" fill="#EEE7E7"/>
<rect x="71" y="339" width="64" height="4" rx="2" fill="#EEE7E7"/>
<rect x="78.5" y="345" width="49" height="4" rx="2" fill="#EEE7E7"/>
<rect x="61.5" y="351" width="83" height="4" rx="2" fill="#EEE7E7"/>
<rect x="67" y="357" width="72" height="4" rx="2" fill="#EEE7E7"/>
<rect x="75" y="363" width="56" height="4" rx="2" fill="#EEE7E7"/>
<rect x="79.5" y="369" width="47" height="4" rx="2" fill="#EEE7E7"/>
<rect x="71" y="375" width="64" height="4" rx="2" fill="#EEE7E7"/>
<rect x="66" y="381" width="74" height="4" rx="2" fill="#EEE7E7"/>
<rect x="71" y="387" width="64" height="4" rx="2" fill="#EEE7E7"/>
<rect x="61.5" y="393" width="83" height="4" rx="2" fill="#EEE7E7"/>
<rect x="67.5" y="399" width="71" height="4" rx="2" fill="#EEE7E7"/>
<rect x="78" y="405" width="50" height="4" rx="2" fill="#EEE7E7"/>
<rect x="92.5" y="411" width="21" height="4" rx="2" fill="#EEE7E7"/>
<rect x="91" y="417" width="24" height="4" rx="2" fill="#EEE7E7"/>
<rect x="92.5" y="423" width="21" height="4" rx="2" fill="#EEE7E7"/>
<rect x="84.5" y="429" width="37" height="4" rx="2" fill="#EEE7E7"/>
<rect x="61" y="350" width="27" height="6" rx="3" fill="#F3ADAD" fill-opacity="0.54"/>
<rect x="101" y="368" width="27" height="6" rx="3" fill="#F3ADAD" fill-opacity="0.54"/>
<rect x="122" y="356" width="18" height="6" rx="3" fill="#9CE09F" fill-opacity="0.54"/>
<rect x="70" y="386" width="30" height="6" rx="3" fill="#9CE09F" fill-opacity="0.54"/>
<rect x="83" y="362" width="19" height="6" rx="3" fill="#9CABE0" fill-opacity="0.54"/>
<rect x="127" y="392" width="19" height="6" rx="3" fill="#9CABE0" fill-opacity="0.54"/>
<rect x="88" y="416" width="30" height="6" rx="3" fill="#9CE09F" fill-opacity="0.54"/>
<rect x="88" y="392" width="42" height="6" rx="3" fill="#F3ADAD" fill-opacity="0.54"/>
<rect x="77" y="404" width="27" height="6" rx="3" fill="#F3ADAD" fill-opacity="0.54"/>
<rect x="59" y="447" width="27" height="6" rx="3" fill="#F3ADAD" fill-opacity="0.54"/>
<rect x="99" y="465" width="27" height="6" rx="3" fill="#F3ADAD" fill-opacity="0.54"/>
<rect x="120" y="453" width="18" height="6" rx="3" fill="#9CE09F" fill-opacity="0.54"/>
<rect x="68" y="483" width="30" height="6" rx="3" fill="#9CE09F" fill-opacity="0.54"/>
<rect x="81" y="459" width="19" height="6" rx="3" fill="#9CABE0" fill-opacity="0.54"/>
<rect x="125" y="489" width="19" height="6" rx="3" fill="#9CABE0" fill-opacity="0.54"/>
<rect x="86" y="513" width="30" height="6" rx="3" fill="#9CE09F" fill-opacity="0.54"/>
<rect x="86" y="489" width="42" height="6" rx="3" fill="#F3ADAD" fill-opacity="0.54"/>
<rect x="75" y="501" width="27" height="6" rx="3" fill="#F3ADAD" fill-opacity="0.54"/>
<rect x="64" y="544" width="27" height="6" rx="3" fill="#F3ADAD" fill-opacity="0.54"/>
<rect x="63" y="563" width="27" height="6" rx="3" fill="#F3ADAD" fill-opacity="0.54"/>
<rect x="124" y="544" width="18" height="6" rx="3" fill="#9CE09F" fill-opacity="0.54"/>
<rect x="111" y="553" width="30" height="6" rx="3" fill="#9CE09F" fill-opacity="0.54"/>
<rect x="100" y="574" width="19" height="6" rx="3" fill="#9CABE0" fill-opacity="0.54"/>
<rect x="122" y="574" width="19" height="6" rx="3" fill="#9CABE0" fill-opacity="0.54"/>
<rect x="111" y="563" width="30" height="6" rx="3" fill="#9CE09F" fill-opacity="0.54"/>
<rect x="63" y="553" width="42" height="6" rx="3" fill="#F3ADAD" fill-opacity="0.54"/>
<rect x="63" y="574" width="27" height="6" rx="3" fill="#F3ADAD" fill-opacity="0.54"/>
<path d="M101.293 674.707C101.683 675.098 102.317 675.098 102.707 674.707L109.071 668.343C109.462 667.953 109.462 667.319 109.071 666.929C108.681 666.538 108.047 666.538 107.657 666.929L102 672.586L96.3431 666.929C95.9526 666.538 95.3195 666.538 94.9289 666.929C94.5384 667.319 94.5384 667.953 94.9289 668.343L101.293 674.707ZM101 599V674H103V599H101Z" fill="#EEE7E7"/>
</svg>
