<svg width="108" height="206" viewBox="0 0 108 206" fill="none" xmlns="http://www.w3.org/2000/svg">
<path d="M48.1055 14.3572C50.5712 8.82114 58.4288 8.82113 60.8944 14.3571L85.1879 68.902C87.2498 73.5316 83.8614 78.75 78.7934 78.75H30.2066C25.1386 78.75 21.7502 73.5316 23.8121 68.902L48.1055 14.3572Z" fill="#E4DEF3"/>
<rect x="23" y="71" width="63" height="92" fill="#E4DEF3"/>
<path d="M1.82677 205.5C-2.67323 196.833 -1.67324 167.6 38.3268 120V176.497C38.4678 176.396 38.462 176.403 38.3268 176.5V176.497C37.2515 177.263 27.6415 184.282 1.82677 205.5Z" fill="#E4DEF3"/>
<path d="M106.146 206C110.713 197.283 109.698 167.878 69.1051 120V176.827C68.962 176.726 68.9679 176.733 69.1051 176.83V176.827C70.1963 177.598 79.9488 184.658 106.146 206Z" fill="#E4DEF3"/>
<circle cx="54.5" cy="89.5" r="18.5" fill="#3B3744"/>
</svg>
